<svg width="74" height="67" viewBox="0 0 74 67" fill="none" xmlns="http://www.w3.org/2000/svg">
<path d="M59.0318 14.2579C58.7149 13.8619 58.1605 13.7035 57.606 13.9411L55.5465 14.7332L49.2096 0.712896C48.972 0.237632 48.576 0 48.1007 0H27.5059C27.1099 0 26.793 0.158421 26.5554 0.475264L14.9114 14.4164C14.6738 14.654 14.5946 15.05 14.6738 15.3669C14.753 15.6837 14.9114 16.0006 15.149 16.2382L26.793 24.8722C27.3475 25.2682 28.1396 25.189 28.5357 24.6345L36.1399 14.3371L39.7836 20.8324L37.4865 22.0206C37.0112 22.2582 36.7736 22.7335 36.8528 23.2087C36.932 23.684 37.2488 24.1593 37.8033 24.2385L50.7939 27.4069C50.8731 27.4069 50.9523 27.4069 51.1107 27.4069C51.5068 27.4069 51.9028 27.1693 52.1404 26.8524L59.111 15.6837C59.4278 15.2085 59.3486 14.654 59.0318 14.2579ZM27.2683 22.0998L17.6838 14.9708L28.1396 2.45553H29.803L34.9517 12.04L27.2683 22.0998ZM50.3978 24.8722L41.6054 22.7335L42.0807 22.4958C42.3975 22.3374 42.6352 22.0998 42.7144 21.7829C42.7936 21.4661 42.7936 21.1493 42.6352 20.8324L37.4073 11.4856L32.4962 2.37632H47.2294L53.7247 16.7927C53.9623 17.2679 54.5168 17.5848 54.992 17.5056L50.3978 24.8722Z" fill="#00963E"/>
<path d="M31.6249 46.259L18.7927 45.7045L22.1196 39.0508L24.3375 40.3182C24.8128 40.5558 25.3672 40.5558 25.7633 40.1598C26.1593 39.843 26.3178 39.2885 26.0801 38.8132L21.4067 26.2979C21.2483 25.8227 20.773 25.5058 20.2185 25.5058L6.99035 25.9811C6.43587 25.9811 6.03982 26.3771 5.8814 26.8524C5.72297 27.3277 5.96061 27.8821 6.35666 28.199L8.17851 29.4663L0.178224 42.6153C-0.059408 43.0114 -0.059408 43.5659 0.178224 43.9619L9.04982 57.0317L12.4559 62.1804C12.6935 62.4972 13.0896 62.7348 13.4856 62.7348H31.5457C32.2586 62.7348 32.813 62.1804 32.813 61.4675V47.5264C32.813 46.8927 32.2586 46.3382 31.6249 46.259ZM10.9509 55.4475L2.71297 43.249L11.0301 29.7832C11.3469 29.3079 11.2677 28.7535 10.8717 28.3574L19.5056 27.9613L22.6741 36.5161L22.1988 36.2785C21.882 36.1201 21.5651 36.0408 21.2483 36.1993C20.9314 36.2785 20.6938 36.5161 20.5354 36.8329L15.7827 46.3382L10.9509 55.4475ZM30.2783 60.2793H14.1193L12.5351 57.8238L17.6046 48.1601L30.2783 48.7146V60.2793Z" fill="#00963E"/>
<path d="M73.6066 42.1401L65.6855 25.8227C65.5271 25.5058 65.2894 25.2682 64.9726 25.189C64.6558 25.1098 64.3389 25.1098 64.0221 25.3474L51.3484 32.3972C50.7939 32.714 50.5562 33.5061 50.8731 34.0606L57.0515 45.2293L49.6057 45.863L49.5265 43.3282C49.5265 42.7738 49.1305 42.3777 48.6552 42.2193C48.1799 42.0609 47.6255 42.2193 47.3086 42.6153L39.0707 53.1504C38.7539 53.5464 38.7539 54.1801 38.9915 54.5762L46.3581 65.5072C46.5957 65.8241 46.9918 66.0617 47.3878 66.0617C47.467 66.0617 47.6255 66.0617 47.7047 65.9825C48.1799 65.8241 48.576 65.3488 48.576 64.8736L48.6552 62.6557H64.0221C64.4973 62.6557 64.9726 62.3388 65.131 61.9428L73.6066 43.1698C73.765 42.853 73.765 42.4569 73.6066 42.1401ZM63.3884 60.2793H47.6255C47.071 60.2793 46.5957 60.6754 46.4373 61.1507L41.6054 53.9425L47.2294 46.7343V47.2888C47.2294 47.6056 47.3878 47.9225 47.6255 48.1601C47.8631 48.3977 48.1799 48.4769 48.576 48.4769L59.1902 47.5264L69.4876 46.8135L63.3884 60.2793ZM70.5174 44.1996L59.6655 44.9917L53.5663 33.9022L64.0221 28.0406L71.2302 42.6946L70.5174 44.1996Z" fill="#00963E"/>
</svg>
