<svg width="53" height="70" viewBox="0 0 53 70" fill="none" xmlns="http://www.w3.org/2000/svg">
<path d="M5.83335 4.66667C5.52393 4.66667 5.22719 4.78959 5.0084 5.00838C4.7896 5.22717 4.66669 5.52392 4.66669 5.83334C4.66669 6.14276 4.7896 6.4395 5.0084 6.6583C5.22719 6.87709 5.52393 7.00001 5.83335 7.00001H15.1667C15.4761 7.00001 15.7729 6.87709 15.9916 6.6583C16.2104 6.4395 16.3334 6.14276 16.3334 5.83334C16.3334 5.52392 16.2104 5.22717 15.9916 5.00838C15.7729 4.78959 15.4761 4.66667 15.1667 4.66667H5.83335Z" fill="#00963E"/>
<path d="M21 4.66667C20.6906 4.66667 20.3939 4.78959 20.1751 5.00838C19.9563 5.22717 19.8334 5.52392 19.8334 5.83334C19.8334 6.14276 19.9563 6.4395 20.1751 6.6583C20.3939 6.87709 20.6906 7.00001 21 7.00001H30.3334C30.6428 7.00001 30.9395 6.87709 31.1583 6.6583C31.3771 6.4395 31.5 6.14276 31.5 5.83334C31.5 5.52392 31.3771 5.22717 31.1583 5.00838C30.9395 4.78959 30.6428 4.66667 30.3334 4.66667H21Z" fill="#00963E"/>
<path d="M45.5 4.66667H36.1667C35.8572 4.66667 35.5605 4.78959 35.3417 5.00838C35.1229 5.22717 35 5.52392 35 5.83334C35 6.14276 35.1229 6.4395 35.3417 6.6583C35.5605 6.87709 35.8572 7.00001 36.1667 7.00001H45.5C45.8094 7.00001 46.1062 6.87709 46.325 6.6583C46.5438 6.4395 46.6667 6.14276 46.6667 5.83334C46.6667 5.52392 46.5438 5.22717 46.325 5.00838C46.1062 4.78959 45.8094 4.66667 45.5 4.66667Z" fill="#00963E"/>
<path d="M31.8034 22.4467C31.9306 22.5332 32.0736 22.5939 32.2242 22.6252C32.3748 22.6565 32.5301 22.6579 32.6812 22.6292C32.8323 22.6004 32.9763 22.5422 33.105 22.4579C33.2336 22.3735 33.3444 22.2647 33.4309 22.1375C33.5175 22.0103 33.5782 21.8674 33.6095 21.7168C33.6408 21.5661 33.6421 21.4108 33.6134 21.2597C33.5847 21.1086 33.5265 20.9646 33.4422 20.836C33.3578 20.7073 33.2489 20.5966 33.1218 20.51C29.9758 18.381 26.2224 17.3334 22.4286 17.5255C18.6347 17.7177 15.0064 19.1391 12.0915 21.575C9.17671 24.011 7.13367 27.3293 6.27095 31.0288C5.40823 34.7282 5.7727 38.6079 7.3093 42.082C8.84591 45.5561 11.4712 48.4358 14.7887 50.2863C18.1062 52.1368 21.9358 52.8576 25.699 52.3398C29.4623 51.822 32.9549 50.0938 35.6494 47.4161C38.3438 44.7384 40.0938 41.2566 40.6351 37.4967C40.6566 37.3435 40.6476 37.1875 40.6088 37.0378C40.57 36.888 40.5021 36.7474 40.4089 36.6239C40.3157 36.5004 40.1991 36.3964 40.0658 36.318C39.9325 36.2395 39.785 36.1881 39.6318 36.1667C39.4786 36.1452 39.3226 36.1542 39.1729 36.193C39.0231 36.2318 38.8825 36.2997 38.759 36.3929C38.6355 36.4861 38.5315 36.6026 38.4531 36.736C38.3746 36.8693 38.3232 37.0168 38.3018 37.17C37.8977 39.971 36.7085 42.6003 34.8718 44.7533L25.8068 42.315L26.8334 36.3533C26.8893 36.0569 26.8281 35.7503 26.6628 35.498C26.4975 35.2457 26.2409 35.0672 25.9468 35L22.5751 34.16L24.4184 29.5633C24.5329 29.2756 24.5284 28.9541 24.4059 28.6697C24.2834 28.3853 24.0529 28.1612 23.7651 28.0467C23.4774 27.9322 23.1559 27.9367 22.8715 28.0592C22.587 28.1817 22.3629 28.4122 22.2484 28.7L19.9151 34.5333C19.8458 34.6853 19.8099 34.8504 19.8099 35.0175C19.8099 35.1846 19.8458 35.3497 19.9151 35.5017C19.9918 35.6491 20.0992 35.7785 20.23 35.8811C20.3607 35.9838 20.5119 36.0572 20.6734 36.0967L24.2901 37.0067L23.3334 42.98C23.2768 43.2732 23.3347 43.577 23.4954 43.8288C23.656 44.0805 23.907 44.2611 24.1968 44.3333L32.9701 46.6667C30.3422 48.8516 27.0534 50.0849 23.6368 50.1667L24.5001 46.97C24.5695 46.712 24.5483 46.4381 24.44 46.1939C24.3317 45.9497 24.1429 45.7501 23.9051 45.6283L19.2384 43.295C19.0786 43.2167 18.9031 43.176 18.7251 43.176C18.5472 43.176 18.3716 43.2167 18.2118 43.295C18.0517 43.37 17.9108 43.4804 17.7996 43.6178C17.6885 43.7552 17.61 43.9161 17.5701 44.0883L16.5784 48.545C15.9052 48.204 15.2579 47.8141 14.6418 47.3783L13.0784 42.4317L17.0334 39.4333C17.1783 39.3247 17.2959 39.1837 17.3769 39.0218C17.4579 38.8598 17.5001 38.6811 17.5001 38.5V35C17.501 34.8465 17.4716 34.6943 17.4135 34.5521C17.3555 34.41 17.2699 34.2807 17.1618 34.1717L13.3118 30.3333L15.9951 27.6617C16.2148 27.442 16.3382 27.144 16.3382 26.8333C16.3382 26.5226 16.2148 26.2247 15.9951 26.005C15.7754 25.7853 15.4775 25.6619 15.1668 25.6619C14.8561 25.6619 14.5581 25.7853 14.3384 26.005L10.8384 29.505C10.7291 29.6135 10.6423 29.7425 10.5831 29.8847C10.5238 30.0268 10.4933 30.1793 10.4933 30.3333C10.4933 30.4873 10.5238 30.6398 10.5831 30.782C10.6423 30.9242 10.7291 31.0532 10.8384 31.1617L15.1668 35.4783V37.9167L10.9668 41.0667C10.7744 41.2121 10.6319 41.4137 10.5587 41.6435C10.4856 41.8733 10.4855 42.1201 10.5584 42.35L11.0251 43.82C9.16503 41.2555 8.16446 38.168 8.16678 35C8.16678 30.9776 9.76469 27.1199 12.609 24.2755C15.4533 21.4312 19.311 19.8333 23.3334 19.8333C24.735 19.8371 26.1292 20.0374 27.4751 20.4283L21.8168 22.225C21.6167 22.2897 21.4377 22.4073 21.299 22.5654C21.1602 22.7234 21.0667 22.9161 21.0285 23.1229C20.9902 23.3297 21.0086 23.543 21.0816 23.7403C21.1547 23.9375 21.2797 24.1113 21.4434 24.2433L27.2768 28.91C27.482 29.0747 27.737 29.1651 28.0001 29.1667C28.1744 29.1673 28.3466 29.1288 28.5041 29.0541C28.6616 28.9794 28.8003 28.8704 28.9101 28.735C29.007 28.6157 29.0794 28.4784 29.1231 28.331C29.1667 28.1836 29.1808 28.029 29.1646 27.8761C29.1483 27.7233 29.102 27.5751 29.0283 27.4402C28.9546 27.3053 28.855 27.1863 28.7351 27.09L24.5934 23.7883L30.7884 21.8167C31.1384 22.05 31.4768 22.26 31.8034 22.4467ZM19.4834 46.0483L21.9568 47.285L21.2218 50.0033C20.3756 49.8856 19.5405 49.6983 18.7251 49.4433L19.4834 46.0483Z" fill="#00963E"/>
<path d="M51.3331 19.833C51.0237 19.833 50.7269 19.9559 50.5081 20.1747C50.2893 20.3935 50.1664 20.6903 50.1664 20.9997C50.1664 23.7845 49.0602 26.4552 47.091 28.4243C45.1219 30.3934 42.4512 31.4997 39.6664 31.4997H34.4397C35.3987 30.0645 36.6967 28.8878 38.2188 28.0738C39.741 27.2598 41.4403 26.8337 43.1664 26.833C43.4758 26.833 43.7726 26.7101 43.9914 26.4913C44.2102 26.2725 44.3331 25.9758 44.3331 25.6664C44.3331 25.3569 44.2102 25.0602 43.9914 24.8414C43.7726 24.6226 43.4758 24.4997 43.1664 24.4997C40.3691 24.4977 37.6497 25.4206 35.4314 27.1247C36.3723 25.6105 37.6831 24.3608 39.2405 23.4934C40.7978 22.6259 42.5504 22.1692 44.3331 22.1664H46.6664C46.9758 22.1664 47.2726 22.0434 47.4914 21.8246C47.7102 21.6059 47.8331 21.3091 47.8331 20.9997C47.8331 20.6903 47.7102 20.3935 47.4914 20.1747C47.2726 19.9559 46.9758 19.833 46.6664 19.833H44.3331C41.0512 19.8278 37.892 21.0802 35.505 23.3326C33.118 25.585 31.6847 28.6663 31.4997 31.943C30.7249 33.6339 30.3268 35.473 30.3331 37.333C30.3331 37.6424 30.456 37.9392 30.6748 38.158C30.8936 38.3768 31.1903 38.4997 31.4997 38.4997C31.8092 38.4997 32.1059 38.3768 32.3247 38.158C32.5435 37.9392 32.6664 37.6424 32.6664 37.333C32.6677 36.1393 32.877 34.9549 33.2847 33.833H39.6664C43.07 33.833 46.3342 32.4809 48.741 30.0742C51.1477 27.6675 52.4997 24.4033 52.4997 20.9997C52.4997 20.6903 52.3768 20.3935 52.158 20.1747C51.9392 19.9559 51.6425 19.833 51.3331 19.833Z" fill="#00963E"/>
<path d="M45.5 34.5917C45.1906 34.5917 44.8938 34.7146 44.675 34.9334C44.4563 35.1522 44.3333 35.4489 44.3333 35.7583V60.6667H5.83333C4.90508 60.6667 4.01484 60.2979 3.35846 59.6415C2.70208 58.9852 2.33333 58.0949 2.33333 57.1667V10.5C3.33983 11.2634 4.57007 11.6735 5.83333 11.6667H44.3333V16.3333C44.3333 16.6428 44.4563 16.9395 44.675 17.1583C44.8938 17.3771 45.1906 17.5 45.5 17.5C45.8094 17.5 46.1062 17.3771 46.325 17.1583C46.5438 16.9395 46.6667 16.6428 46.6667 16.3333V10.5C46.6667 10.1906 46.5438 9.89383 46.325 9.67504C46.1062 9.45625 45.8094 9.33333 45.5 9.33333H5.83333C4.90508 9.33333 4.01484 8.96458 3.35846 8.30821C2.70208 7.65183 2.33333 6.76159 2.33333 5.83333C2.33333 4.90508 2.70208 4.01484 3.35846 3.35846C4.01484 2.70208 4.90508 2.33333 5.83333 2.33333H45.5C45.8094 2.33333 46.1062 2.21042 46.325 1.99162C46.5438 1.77283 46.6667 1.47609 46.6667 1.16667C46.6667 0.857247 46.5438 0.560501 46.325 0.341709C46.1062 0.122916 45.8094 0 45.5 0H5.83333C4.28624 0 2.80251 0.614582 1.70854 1.70854C0.614582 2.80251 0 4.28624 0 5.83333V57.1667C0 58.7138 0.614582 60.1975 1.70854 61.2915C2.80251 62.3854 4.28624 63 5.83333 63H7V68.8333C7.0006 69.0322 7.05203 69.2276 7.14941 69.401C7.24678 69.5744 7.38687 69.7201 7.55636 69.8241C7.72586 69.9281 7.91913 69.9871 8.11783 69.9954C8.31654 70.0038 8.51407 69.9612 8.69167 69.8717L12.8333 67.8067L16.975 69.8717C17.1375 69.9549 17.3174 69.9989 17.5 70C17.7184 70.0007 17.9327 69.9401 18.1183 69.825C18.2865 69.7199 18.425 69.5737 18.521 69.4002C18.6169 69.2267 18.6671 69.0316 18.6667 68.8333V63H45.5C45.8094 63 46.1062 62.8771 46.325 62.6583C46.5438 62.4395 46.6667 62.1427 46.6667 61.8333V35.7583C46.6667 35.4489 46.5438 35.1522 46.325 34.9334C46.1062 34.7146 45.8094 34.5917 45.5 34.5917ZM16.3333 66.9433L13.3583 65.4617C13.1955 65.3796 13.0157 65.3369 12.8333 65.3369C12.651 65.3369 12.4712 65.3796 12.3083 65.4617L9.33333 66.9433V63H16.3333V66.9433Z" fill="#00963E"/>
</svg>
