<svg width="68" height="66" viewBox="0 0 68 66" fill="none" xmlns="http://www.w3.org/2000/svg">
<path d="M9.99349 53.9158L16.3197 57.2249V64.625C16.3197 65.3844 16.9082 66 17.6338 66H31.5631C32.2887 66 32.8771 65.3844 32.8771 64.625V46.6744C32.8771 42.4618 29.857 38.9682 25.8611 38.5491C25.8456 38.5446 20.3026 37.639 17.7309 34.9481L14.7798 31.8616C13.7868 30.8225 12.467 30.2501 11.0634 30.2501V19.2501C11.0634 16.2174 8.70543 13.7501 5.8071 13.7501C2.90877 13.7501 0.550781 16.2174 0.550781 19.2501V37.928C0.550781 41.2498 1.43305 44.4993 3.10207 47.3251C4.77095 50.1508 7.15403 52.4299 9.99349 53.9158ZM3.17894 19.2501C3.17894 17.7337 4.35793 16.5001 5.8071 16.5001C7.25627 16.5001 8.43526 17.7337 8.43526 19.2501V30.9872C6.83261 31.9568 5.8071 33.7647 5.8071 35.75C5.8071 37.2185 6.35402 38.5995 7.34707 39.6385L14.0765 46.6813C14.5894 47.2182 15.4216 47.2185 15.9348 46.6814C16.448 46.1445 16.4481 45.274 15.935 44.7369L9.20557 37.694C8.70885 37.1744 8.43526 36.484 8.43526 35.75C8.43526 34.5862 9.13921 33.544 10.1872 33.1567C10.1876 33.1565 10.188 33.1563 10.1884 33.1561H10.1885C11.0947 32.8201 12.1697 33.0194 12.9217 33.8062L15.8728 36.8929C18.9196 40.0809 25.5764 41.2806 25.5896 41.2844C28.2459 41.563 30.249 43.8803 30.249 46.6744V63.25H18.9479V56.375C18.9479 55.8542 18.6666 55.378 18.2215 55.1452L11.1689 51.4561C6.24061 48.8771 3.17894 43.6935 3.17894 37.928V19.2501Z" fill="#00963E"/>
<path d="M32.8772 31.6251C32.8772 32.3845 33.4657 33.0001 34.1913 33.0001C34.9169 33.0001 35.5054 32.3845 35.5054 31.6251V27.5001H40.5357C47.9062 27.5001 53.9025 21.2258 53.9025 13.5136V6.87512C53.9025 6.31907 53.5822 5.81761 53.0913 5.60476C52.6002 5.39191 52.035 5.50961 51.6592 5.90286C50.2127 7.41659 48.2895 8.25012 46.244 8.25012C41.8491 8.25012 37.9431 10.4813 35.5054 13.9177V1.37513C35.5054 0.615718 34.9169 0.000132059 34.1913 0.000132059C33.4657 0.000132059 32.8772 0.615718 32.8772 1.37513V8.41786C30.4395 4.98147 26.5335 2.75013 22.1386 2.75013C20.0931 2.75013 18.1699 1.9166 16.7234 0.402869C16.3477 0.00961966 15.7824 -0.108218 15.2913 0.104769C14.8003 0.317756 14.4801 0.81908 14.4801 1.37513V8.01362C14.4801 15.7258 20.4764 22.0001 27.8469 22.0001H32.8772V31.6251ZM46.244 11.0001C48.0345 11.0001 49.7553 10.5246 51.2743 9.63075V13.5136C51.2743 19.7095 46.457 24.7501 40.5357 24.7501H38.1335L45.4924 18.9751C46.0729 18.5196 46.1906 17.6576 45.7552 17.0501C45.3198 16.4426 44.4962 16.3193 43.9155 16.7751L35.5054 23.3751V22.2366C35.5054 16.0408 40.3227 11.0001 46.244 11.0001ZM17.1083 8.01362V4.13076C18.6275 5.02465 20.3481 5.50012 22.1386 5.50012C28.0599 5.50012 32.8772 10.5409 32.8772 16.7366V17.8751L24.4671 11.2751C23.8865 10.8196 23.0629 10.9426 22.6274 11.5501C22.192 12.1576 22.3097 13.0196 22.8902 13.4751L30.2491 19.2501H27.8469C21.9255 19.2501 17.1083 14.2095 17.1083 8.01362Z" fill="#00963E"/>
<path d="M60.8671 51.975C61.5928 51.975 62.1811 51.3594 62.1811 50.6C62.1811 49.8406 61.5928 49.225 60.8671 49.225C60.1413 49.225 59.553 49.8406 59.553 50.6C59.553 51.3594 60.1413 51.975 60.8671 51.975Z" fill="#00963E"/>
<path d="M62.5755 13.7501C59.6771 13.7501 57.3192 16.2174 57.3192 19.2501V30.2501C55.9156 30.2501 54.5957 30.8223 53.6031 31.8611L50.6514 34.9483C48.1366 37.5799 42.5442 38.5442 42.5309 38.5482C38.5256 38.9684 35.5054 42.4618 35.5054 46.6745V64.625C35.5054 65.3844 36.0939 66 36.8195 66H50.7488C51.4744 66 52.0628 65.3844 52.0628 64.625V57.2249L56.3638 54.9751C57.0128 54.6355 57.2761 53.8097 56.9516 53.1303C56.6272 52.4512 55.8382 52.1758 55.1886 52.5152L50.1611 55.1449C49.716 55.3781 49.4347 55.8542 49.4347 56.375V63.25H38.1336V46.6744C38.1336 43.8803 40.1366 41.563 42.8024 41.2833C42.8157 41.2795 49.2974 40.2541 52.5095 36.8929L55.4612 33.8058C56.2134 33.0188 57.2895 32.8205 58.1941 33.156H58.1942C58.1946 33.1561 58.195 33.1564 58.1954 33.1565C59.2434 33.5441 59.9473 34.5864 59.9473 35.75C59.9473 36.484 59.6737 37.1744 59.1771 37.6943L52.4477 44.737C51.9346 45.2741 51.9347 46.1446 52.4479 46.6816C52.9609 47.2183 53.7931 47.2185 54.3062 46.6814L61.0356 39.6387C62.0286 38.5996 62.5755 37.2185 62.5755 35.75C62.5755 33.7647 61.55 31.9568 59.9473 30.9872V19.2501C59.9473 17.7337 61.1263 16.5001 62.5755 16.5001C64.0246 16.5001 65.2036 17.7337 65.2036 19.2501V37.928C65.2036 40.4437 64.5969 42.9413 63.4489 45.1506C63.1022 45.8178 63.338 46.6527 63.9758 47.0154C64.6132 47.378 65.4114 47.1313 65.7579 46.4642C67.1147 43.853 67.8318 40.9013 67.8318 37.928V19.2501C67.8318 16.2174 65.4738 13.7501 62.5755 13.7501Z" fill="#00963E"/>
</svg>
