<svg width="237" height="16" viewBox="0 0 237 16" fill="none" xmlns="http://www.w3.org/2000/svg">
<path d="M116.556 15.3334C116.556 15.7016 116.841 16.0001 117.193 16.0001C117.545 16.0001 117.83 15.7016 117.83 15.3334V13.3334H120.269C123.843 13.3334 126.75 10.2913 126.75 6.55206V3.3334C126.75 3.0638 126.595 2.82066 126.357 2.71746C126.119 2.61426 125.845 2.67133 125.662 2.862C124.961 3.59593 124.029 4.00006 123.037 4.00006C120.906 4.00006 119.012 5.08186 117.83 6.748V0.666731C117.83 0.298531 117.545 6.40285e-05 117.193 6.40285e-05C116.841 6.40285e-05 116.556 0.298531 116.556 0.666731V4.0814C115.374 2.41526 113.48 1.3334 111.349 1.3334C110.358 1.3334 109.425 0.929264 108.724 0.195331C108.542 0.00466409 108.268 -0.0524693 108.029 0.0507973C107.791 0.154064 107.636 0.397131 107.636 0.666731V3.8854C107.636 7.62466 110.543 10.6667 114.117 10.6667H116.556V15.3334ZM123.037 5.3334C123.905 5.3334 124.739 5.10286 125.476 4.66946V6.55206C125.476 9.55613 123.14 12.0001 120.269 12.0001H119.105L122.672 9.20006C122.954 8.9792 123.011 8.56126 122.8 8.26673C122.589 7.9722 122.189 7.9124 121.908 8.1334L117.83 11.3334V10.7814C117.83 7.7774 120.166 5.3334 123.037 5.3334ZM108.91 3.8854V2.0028C109.647 2.4362 110.481 2.66673 111.349 2.66673C114.22 2.66673 116.556 5.11073 116.556 8.11473V8.66673L112.478 5.46673C112.197 5.24586 111.798 5.30553 111.586 5.60006C111.375 5.8946 111.432 6.31253 111.714 6.5334L115.282 9.3334H114.117C111.246 9.3334 108.91 6.88946 108.91 3.8854Z" fill="#00963E"/>
<line x1="101.334" y1="7.78692" x2="7.62065e-05" y2="7.78691" stroke="#D1D1D1" stroke-width="2"/>
<line x1="236.12" y1="7.78692" x2="134.787" y2="7.78691" stroke="#D1D1D1" stroke-width="2"/>
</svg>
