<svg width="129" height="61" viewBox="0 0 129 61" fill="none" xmlns="http://www.w3.org/2000/svg">
<path fill-rule="evenodd" clip-rule="evenodd" d="M0 55.1723C0.0446522 37.682 4.91174 17.7314 18.2315 7.22919C29.917 -1.9647 42.3705 -0.223261 55.851 1.58069C65.5628 2.88007 77.4269 4.47415 86.1386 4.44289C90.443 4.4161 95.069 4.18838 98.5519 0.946627C98.4715 3.72846 96.538 7.64446 94.426 9.94851C104.741 10.1316 120.213 10.4218 128.46 0C130.505 16.8964 126.343 33.6008 117.266 45.2104C110.273 54.1408 100.177 59.8697 88.9784 60.8386C69.9119 62.5131 51.5465 50.6981 33.2748 46.6348C20.6025 43.8083 9.37696 45.2818 0 55.1723Z" fill="#00963E"/>
<path fill-rule="evenodd" clip-rule="evenodd" d="M48.7289 46.1524C62.7453 48.8315 76.9893 51.6312 89.9116 46.0944C85.1651 61.227 63.674 53.1315 48.7289 46.1524Z" fill="white"/>
<path fill-rule="evenodd" clip-rule="evenodd" d="M27.1798 36.6325C31.0109 35.1233 33.2748 29.1712 33.6633 25.532C33.7258 25.0855 33.7704 24.639 33.7928 24.1924C30.5957 30.341 28.4658 27.1841 26.0501 26.1036C24.4069 25.3713 22.5538 27.0725 22.8932 26.5233C26.8449 20.1246 27.6084 24.5363 30.7386 24.63C31.7834 24.6568 33.1944 23.8352 33.8196 23.5539C33.9357 15.963 28.6086 10.2029 25.4026 21.1606C23.5317 21.1606 20.8213 21.1606 19.3612 21.1606C21.2723 15.262 29.073 9.67155 35.4895 15.8023C41.2943 21.1248 39.6467 36.0789 26.6484 38.2579C25.2796 38.4832 23.8749 38.3144 22.5985 37.7712C21.8691 37.5378 21.2297 37.0849 20.7677 36.4742C20.3057 35.8635 20.0437 35.125 20.0176 34.3597C20.0176 32.3325 21.826 30.6804 24.0363 30.6804C26.2465 30.6804 28.055 32.3325 28.055 34.3597C28.0462 35.2052 27.7286 36.0184 27.1619 36.6459" fill="white"/>
<path d="M93.1088 31.3815C93.0951 31.878 93.131 32.3746 93.2159 32.8639C93.2918 33.1765 93.4437 33.3105 93.6625 33.3105C93.8961 33.2753 94.1122 33.1656 94.2787 32.9979C94.426 32.8684 94.6537 32.6228 94.8636 32.6228C95.0735 32.6228 95.1851 32.7657 95.1851 33.0693C95.1338 33.5357 94.9072 33.9651 94.551 34.2705C93.658 35.2305 92.765 35.7127 91.8362 35.7127C91.4341 35.7362 91.0373 35.6124 90.7199 35.3645C90.3915 35.0407 90.149 34.6401 90.0144 34.199C89.9517 34.0021 89.8756 33.8096 89.7867 33.623C89.6884 33.4578 89.6125 33.4489 89.483 33.5605C89.3535 33.6721 89.1526 33.8775 88.849 34.1946C88.3807 34.6758 87.856 35.0986 87.2861 35.4538C85.2009 36.7487 82.7763 35.5743 82.7763 32.9041C82.7763 30.9975 83.9461 29.8053 85.4554 28.8854L89.1437 26.6528C89.6393 26.3492 89.5634 26.4251 89.5634 25.8535V24.581C89.5634 23.7817 89.5946 22.0849 88.4516 22.0849C87.7237 22.0849 87.112 22.7457 86.6655 24.0719C86.5672 24.4121 86.4309 24.7402 86.2591 25.0498C85.8394 25.7598 82.8298 27.2065 82.8298 25.5856C82.8298 24.5497 83.7586 23.2994 84.5043 22.652C85.7718 21.5331 87.418 20.9391 89.1079 20.9909C91.6442 20.9909 93.0954 21.9733 93.0954 24.5184L93.1088 31.3815ZM89.5634 29.2962C89.5634 28.4032 89.4741 27.9567 89.291 27.9567C88.6537 28.303 88.0549 28.7161 87.5049 29.1891C87.1149 29.4569 86.7933 29.8126 86.566 30.2276C86.3387 30.6425 86.2122 31.1051 86.1966 31.5779C86.1826 32.0377 86.3088 32.4909 86.5583 32.8773C86.6608 33.0415 86.8037 33.1765 86.9734 33.2696C87.143 33.3626 87.3338 33.4105 87.5273 33.4087C87.8901 33.3957 88.2411 33.2761 88.5364 33.0649C88.8659 32.8624 89.132 32.5716 89.3044 32.2254C89.4749 31.775 89.5568 31.2959 89.5455 30.8144L89.5634 29.2962Z" fill="white"/>
<path d="M100.865 22.8172C101.825 21.8929 102.914 20.9909 104.285 20.9909C105.278 20.9862 106.242 21.3289 107.009 21.9599C107.853 22.6535 108.509 23.5488 108.916 24.5631C109.383 25.6863 109.618 26.8922 109.608 28.1085C109.621 29.4825 109.345 30.8439 108.8 32.1049C108.321 33.242 107.551 34.2325 106.567 34.976C105.668 35.6579 104.569 36.0236 103.441 36.0164C102.735 36.0024 102.037 35.8649 101.378 35.6101C101.322 35.5938 101.267 35.5744 101.213 35.552C101.148 35.526 101.078 35.5124 101.008 35.5118C100.892 35.5118 100.834 35.8467 100.834 36.5165V40.1646C100.85 40.444 100.938 40.7145 101.088 40.9505C101.215 41.126 101.379 41.2709 101.569 41.3745C101.759 41.478 101.97 41.5376 102.187 41.5488C102.718 41.6515 102.981 41.8926 102.981 42.2677C102.981 42.6428 102.794 42.808 102.41 42.808H95.4485C95.0556 42.808 94.8591 42.6294 94.8591 42.2677C94.8591 41.906 95.0779 41.6381 95.52 41.5488C95.7552 41.5413 95.9863 41.484 96.1979 41.3809C96.4095 41.2778 96.5969 41.1311 96.7479 40.9505C96.9117 40.7195 97.0075 40.4472 97.0247 40.1646V26.8448C97.0548 26.2668 96.9991 25.6875 96.8595 25.1257C96.7908 24.9669 96.6755 24.8327 96.5287 24.741C96.382 24.6493 96.2108 24.6044 96.0379 24.6122C95.901 24.6025 95.7651 24.5816 95.6316 24.5497C95.5516 24.5242 95.4794 24.4787 95.422 24.4174C95.3647 24.3561 95.3239 24.2811 95.3038 24.1996C95.2836 24.1181 95.2847 24.0328 95.3069 23.9518C95.3291 23.8708 95.3717 23.7969 95.4306 23.737C95.5659 23.5904 95.7501 23.4983 95.9486 23.4781C96.8997 23.2101 98.7706 22.6252 99.8825 21.1829C99.9852 21.049 100.061 20.9329 100.137 20.8525C100.525 20.4462 100.829 20.7498 100.86 21.2187C100.86 21.5 100.86 21.7813 100.86 22.0626L100.865 22.8172ZM100.865 31.2565C100.865 33.6379 101.424 34.8287 102.544 34.8287C102.89 34.8287 103.232 34.7479 103.542 34.5929C103.852 34.4379 104.122 34.2129 104.33 33.9356C104.828 33.2916 105.178 32.5463 105.357 31.7521C105.571 30.8857 105.679 29.9966 105.678 29.1042C105.676 28.2022 105.572 27.3033 105.366 26.4251C105.194 25.5981 104.853 24.8153 104.366 24.1255C104.176 23.8367 103.917 23.5995 103.614 23.4351C103.31 23.2707 102.97 23.1842 102.624 23.1834C102.294 23.1872 101.972 23.2801 101.69 23.4523C101.409 23.6244 101.179 23.8694 101.026 24.1612C100.895 24.4697 100.843 24.8056 100.874 25.1391V31.2565" fill="white"/>
<path d="M81.0794 34.5251C80.7701 34.4935 80.4683 34.4105 80.1863 34.2795C80.104 34.2323 80.0327 34.168 79.9773 34.091C79.9218 34.014 79.8835 33.926 79.8648 33.8329C79.8029 33.4673 79.7775 33.0963 79.7889 32.7256V24.4917C79.7761 24.0943 79.8015 23.6965 79.8648 23.304C79.8837 23.211 79.9222 23.1231 79.9776 23.0462C80.033 22.9692 80.1042 22.9049 80.1863 22.8574C80.5005 22.7316 80.8289 22.6447 81.1642 22.5985C81.2868 22.5906 81.4047 22.549 81.5051 22.4782C81.6054 22.4074 81.6842 22.3103 81.7328 22.1975C81.7813 22.0847 81.7977 21.9607 81.7801 21.8391C81.7625 21.7176 81.7116 21.6033 81.6331 21.5089C81.5888 21.446 81.5299 21.3949 81.4614 21.3599C81.393 21.3249 81.317 21.3071 81.2401 21.308H69.8449C69.7713 21.3084 69.699 21.3269 69.6344 21.362C69.5697 21.397 69.5147 21.4475 69.4743 21.5089C69.3973 21.6102 69.3503 21.731 69.3386 21.8577C69.327 21.9844 69.3512 22.1117 69.4084 22.2253C69.4657 22.3389 69.5537 22.4341 69.6625 22.5001C69.7712 22.5661 69.8963 22.6001 70.0235 22.5985C70.3343 22.6437 70.6359 22.7387 70.9165 22.8798C71.0016 22.9344 71.0747 23.0057 71.1314 23.0894C71.1882 23.173 71.2275 23.2673 71.247 23.3665C71.3128 23.7392 71.3398 24.1178 71.3273 24.4962C71.3273 26.8493 71.4836 29.3097 71.1621 31.6405C71.0999 32.2502 70.9634 32.85 70.7558 33.4266C70.6084 33.7704 70.1842 34.3197 69.9119 33.766C69.6082 33.0873 69.5725 32.3192 69.1528 31.6584C68.6348 30.8412 67.456 31.2119 66.9425 31.8191C66.7256 32.0878 66.5729 32.4024 66.496 32.739C66.2099 33.0259 65.8522 33.231 65.46 33.3328C65.2278 33.3328 65.0716 33.1766 65.0135 32.8863C64.9285 32.397 64.8926 31.9004 64.9063 31.4039V24.5364C64.9063 21.9912 63.4551 21.0088 60.9189 21.0088C59.2132 20.9392 57.546 21.5275 56.2617 22.652C55.516 23.2995 54.5872 24.5498 54.5872 25.5857C54.5872 27.2066 57.6012 25.7598 58.0165 25.0499C58.1883 24.7402 58.3246 24.4122 58.4228 24.072C58.8694 22.7324 59.4677 22.085 60.2089 22.085C61.352 22.085 61.3163 23.7817 61.3163 24.581V25.8759C61.3163 26.4475 61.3922 26.3716 60.8966 26.6752L57.2083 28.9078C55.7169 29.8009 54.5292 31.0109 54.5292 32.9265C54.5292 35.6056 56.9538 36.7711 59.039 35.4761C59.6097 35.1222 60.1346 34.6992 60.6019 34.217C60.9055 33.8999 61.1154 33.6901 61.2359 33.5829C61.3565 33.4757 61.4413 33.4802 61.5396 33.6499C61.6292 33.8346 61.7054 34.0256 61.7673 34.2214C61.9147 34.6635 62.1712 35.0612 62.513 35.3779C62.8292 35.6281 63.2269 35.7522 63.6293 35.7262C64.5223 35.7262 65.4154 35.244 66.3441 34.2839L66.4602 34.1634C66.5405 34.643 66.7436 35.0938 67.0497 35.4717C68.1704 36.7532 70.3361 36.2397 71.2068 34.9091C71.7617 34.0468 72.1129 33.0695 72.2338 32.0513C72.3659 30.9176 72.43 29.7769 72.4258 28.6354V24.264C72.4131 23.9038 72.437 23.5432 72.4972 23.1879C72.5155 23.0963 72.5578 23.0113 72.6198 22.9414C72.6818 22.8716 72.7612 22.8195 72.85 22.7905C73.1789 22.7036 73.5194 22.6689 73.8591 22.6878H74.8682C75.1775 22.6789 75.4869 22.6983 75.7926 22.7458C75.8614 22.7554 75.9262 22.7845 75.9792 22.8296C76.0321 22.8746 76.0712 22.9339 76.0917 23.0003C76.1397 23.2519 76.1591 23.508 76.1498 23.7639V32.6943C76.1619 33.0739 76.1365 33.4539 76.0739 33.8285C76.0567 33.9244 76.0169 34.015 75.9579 34.0926C75.8989 34.1702 75.8224 34.2327 75.7345 34.275C75.4244 34.4003 75.0982 34.4815 74.7656 34.5161C74.0913 34.5161 73.8993 35.811 74.6896 35.811H81.2669C82.0215 35.811 81.892 34.5161 81.0972 34.5161L81.0794 34.5251ZM61.3386 30.8055C61.3521 31.2872 61.2702 31.7667 61.0975 32.2165C60.9278 32.5693 60.6615 32.8666 60.3295 33.0739C60.0342 33.2851 59.6832 33.4047 59.3204 33.4177C59.1269 33.4195 58.9361 33.3716 58.7665 33.2786C58.5968 33.1855 58.4539 33.0505 58.3514 32.8863C58.1019 32.4999 57.9757 32.0467 57.9897 31.5869C58.0053 31.1141 58.1319 30.6515 58.3591 30.2365C58.5864 29.8216 58.908 29.4658 59.298 29.1981C59.848 28.7251 60.4468 28.312 61.0841 27.9656C61.2672 27.9656 61.3565 28.4122 61.3565 29.3052L61.3386 30.8055Z" fill="white"/>
<path d="M41.9953 25.617C42.0075 24.9716 41.9821 24.326 41.9194 23.6835C41.915 23.5406 41.8823 23.3999 41.8233 23.2697C41.7643 23.1394 41.6801 23.0221 41.5756 22.9245C41.2735 22.7428 40.935 22.63 40.5843 22.594C40.4283 22.5872 40.2808 22.521 40.1721 22.4089C40.0633 22.2968 40.0015 22.1474 39.9994 21.9912C39.9994 21.5447 40.2539 21.3348 40.7629 21.3348H46.9875C49.4433 21.3348 52.502 21.7456 52.502 24.8802C52.502 26.7333 51.1624 27.7648 48.4833 28.0059C50.8811 28.0952 53.0869 28.8989 53.0869 31.7031C53.0869 34.7975 50.4391 35.8245 47.9207 35.8245C45.4023 35.8245 43.0089 35.7932 40.5307 35.7932C40.4629 35.7938 40.3957 35.7802 40.3334 35.7533C40.2711 35.7264 40.2151 35.6868 40.1691 35.6369C40.1169 35.5833 40.0762 35.5196 40.0493 35.4498C40.0225 35.3799 40.01 35.3054 40.0128 35.2306C40.0015 35.1458 40.0081 35.0595 40.032 34.9774C40.056 34.8952 40.0967 34.8189 40.1518 34.7534C40.2068 34.6879 40.2749 34.6345 40.3516 34.5968C40.4284 34.559 40.5122 34.5376 40.5977 34.534C40.9541 34.5196 41.2999 34.4085 41.5979 34.2125C41.8033 34.0004 41.9254 33.7214 41.9418 33.4267C41.9978 32.7898 42.0202 32.1503 42.0087 31.5111L41.9953 25.617ZM45.6345 26.4654C45.6266 26.6968 45.6401 26.9285 45.6747 27.1575C45.6806 27.2061 45.7007 27.2519 45.7325 27.2892C45.7642 27.3266 45.8062 27.3537 45.8533 27.3674C46.0492 27.4024 46.2483 27.4158 46.4472 27.4075C48.01 27.4075 48.7869 26.5145 48.7869 24.7686C48.8229 24.1717 48.6457 23.5814 48.2868 23.1031C48.1155 22.9012 47.8998 22.7417 47.6566 22.6371C47.4133 22.5325 47.1491 22.4857 46.8848 22.5003C46.47 22.4523 46.0527 22.5658 45.7193 22.8173C45.6227 23.1734 45.591 23.5439 45.6256 23.9113L45.6345 26.4654ZM45.6345 32.4845C45.627 32.9054 45.6509 33.3263 45.7059 33.7437C45.7403 34.0056 45.8748 34.244 46.081 34.409C46.37 34.603 46.7165 34.6928 47.0634 34.6635C47.3927 34.6891 47.7233 34.6342 48.0267 34.5035C48.3301 34.3728 48.5972 34.1703 48.8048 33.9134C49.2191 33.2945 49.4226 32.5585 49.3853 31.8147C49.408 31.282 49.3007 30.7517 49.0727 30.2697C48.8222 29.8205 48.4744 29.4329 48.0546 29.1356C47.8263 28.9525 47.5589 28.8242 47.2732 28.7605C46.9279 28.7045 46.5781 28.6805 46.2284 28.6891C45.9694 28.6891 45.8086 28.765 45.7372 28.9123C45.6545 29.1549 45.6196 29.4111 45.6345 29.6669V32.4845Z" fill="white"/>
</svg>
