<svg width="487" height="33" viewBox="0 0 487 33" fill="none" xmlns="http://www.w3.org/2000/svg">
<path d="M240.397 31.6251C240.397 32.3845 240.986 33.0001 241.711 33.0001C242.437 33.0001 243.025 32.3845 243.025 31.6251V27.5001H248.056C255.426 27.5001 261.422 21.2258 261.422 13.5136V6.87512C261.422 6.31907 261.102 5.81761 260.611 5.60476C260.12 5.39191 259.555 5.50961 259.179 5.90286C257.733 7.41659 255.809 8.25012 253.764 8.25012C249.369 8.25012 245.463 10.4813 243.025 13.9177V1.37513C243.025 0.615718 242.437 0.000132059 241.711 0.000132059C240.986 0.000132059 240.397 0.615718 240.397 1.37513V8.41786C237.959 4.98147 234.053 2.75013 229.658 2.75013C227.613 2.75013 225.69 1.9166 224.243 0.402869C223.868 0.00961966 223.302 -0.108218 222.811 0.104769C222.32 0.317756 222 0.81908 222 1.37513V8.01362C222 15.7258 227.996 22.0001 235.367 22.0001H240.397V31.6251ZM253.764 11.0001C255.554 11.0001 257.275 10.5246 258.794 9.63075V13.5136C258.794 19.7095 253.977 24.7501 248.056 24.7501H245.653L253.012 18.9751C253.593 18.5196 253.71 17.6576 253.275 17.0501C252.84 16.4426 252.016 16.3193 251.435 16.7751L243.025 23.3751V22.2366C243.025 16.0408 247.843 11.0001 253.764 11.0001ZM224.628 8.01362V4.13076C226.147 5.02465 227.868 5.50012 229.658 5.50012C235.58 5.50012 240.397 10.5409 240.397 16.7366V17.8751L231.987 11.2751C231.406 10.8196 230.583 10.9426 230.147 11.5501C229.712 12.1576 229.83 13.0196 230.41 13.4751L237.769 19.2501H235.367C229.445 19.2501 224.628 14.2095 224.628 8.01362Z" fill="#00963E"/>
<line x1="209" y1="15" x2="-8.74228e-08" y2="15" stroke="#D1D1D1" stroke-width="2"/>
<line x1="487" y1="15" x2="278" y2="15" stroke="#D1D1D1" stroke-width="2"/>
</svg>
